# Blender v2.80 (sub 75) OBJ File: 'blocks.blend'
# www.blender.org
o Cube
v 0.862249 0.394306 0.157047
v 1.000000 0.000000 0.000000
v 0.862249 0.394306 0.842953
v 1.000000 0.000000 1.000000
v 0.137751 0.790983 0.157047
v 0.000000 0.000000 0.000000
v 0.137751 0.790983 0.842953
v 0.000000 0.000000 1.000000
v 1.000000 0.318884 1.000000
v 0.000000 0.866404 1.000000
v 1.000000 0.318884 0.000000
v 0.000000 0.866404 0.000000
v 0.862249 0.182468 0.842953
v 0.137751 0.182468 0.842953
v 0.862249 0.182468 0.157047
v 0.137751 0.182468 0.157047
vt 0.590562 0.039262
vt 0.590562 0.210738
vt 0.590562 0.210738
vt 0.590562 0.039262
vt 0.375000 0.250000
vt 0.625000 0.250000
vt 0.625000 0.500000
vt 0.375000 0.500000
vt 0.625000 0.750000
vt 0.375000 0.750000
vt 0.625000 0.750000
vt 0.625000 1.000000
vt 0.375000 1.000000
vt 0.125000 0.500000
vt 0.375000 0.500000
vt 0.375000 0.750000
vt 0.125000 0.750000
vt 0.625000 0.500000
vt 0.875000 0.500000
vt 0.875000 0.750000
vt 0.409438 0.210738
vt 0.625000 0.250000
vt 0.375000 0.250000
vt 0.409438 0.039262
vt 0.375000 0.000000
vt 0.625000 0.000000
vt 0.409438 0.039262
vt 0.409438 0.210738
vn 1.0000 0.0000 -0.0000
vn 0.0000 0.0000 1.0000
vn -1.0000 0.0000 0.0000
vn 0.0000 -1.0000 0.0000
vn 0.0000 0.0000 -1.0000
vn 0.4802 0.8771 0.0000
vn 0.0000 1.0000 0.0000
s off
f 5/1/1 7/2/1 14/3/1 16/4/1
f 4/5/2 9/6/2 10/7/2 8/8/2
f 8/8/3 10/7/3 12/9/3 6/10/3
f 6/10/4 2/11/4 4/12/4 8/13/4
f 2/14/1 11/15/1 9/16/1 4/17/1
f 6/18/5 12/19/5 11/20/5 2/11/5
f 3/21/6 7/2/6 10/22/6 9/23/6
f 1/24/6 3/21/6 9/23/6 11/25/6
f 7/2/6 5/1/6 12/26/6 10/22/6
f 5/1/6 1/24/6 11/25/6 12/26/6
f 15/27/7 16/4/7 14/3/7 13/28/7
f 7/2/5 3/21/5 13/28/5 14/3/5
f 1/24/2 5/1/2 16/4/2 15/27/2
f 3/21/3 1/24/3 15/27/3 13/28/3
