# Blender v2.83.0 OBJ File: 'blocks.blend'
# www.blender.org
o Planks_Cube.010
v 1.000000 1.000000 1.000000
v 1.000000 0.000000 1.000000
v 0.000000 1.000000 1.000000
v 0.000000 0.000000 1.000000
v 1.000000 1.000000 0.000000
v 1.000000 0.000000 0.000000
v 0.000000 1.000000 0.000000
v 0.000000 0.000000 0.000000
vt 0.250000 0.875000
vt 0.312500 0.875000
vt 0.312500 0.937500
vt 0.250000 0.937500
vt 0.250000 0.875000
vt 0.187500 0.937500
vt 0.187500 0.875000
vt 0.250000 0.875000
vt 0.250000 0.937500
vt 0.187500 0.937500
vt 0.187500 0.875000
vt 0.250000 0.875000
vt 0.312500 0.875000
vt 0.312500 0.937500
vt 0.250000 0.937500
vt 0.250000 0.875000
vt 0.250000 0.937500
vt 0.187500 0.937500
vt 0.187500 0.875000
vt 0.250000 0.937500
vt 0.187500 0.937500
vt 0.187500 0.875000
vn 0.0000 1.0000 0.0000
vn -1.0000 0.0000 0.0000
vn 0.0000 0.0000 -1.0000
vn 0.0000 -1.0000 0.0000
vn 0.0000 0.0000 1.0000
vn 1.0000 0.0000 0.0000
s off
f 1/1/1 5/2/1 7/3/1 3/4/1
f 4/5/2 3/4/2 7/6/2 8/7/2
f 8/8/3 7/9/3 5/10/3 6/11/3
f 6/12/4 2/13/4 4/14/4 8/15/4
f 2/16/5 1/17/5 3/18/5 4/19/5
f 6/12/6 5/20/6 1/21/6 2/22/6
